<?xml version="1.0" standalone="no"?>
<!DOCTYPE svg PUBLIC "-//W3C//DTD SVG 20010904//EN"
 "http://www.w3.org/TR/2001/REC-SVG-20010904/DTD/svg10.dtd">
<svg version="1.0" xmlns="http://www.w3.org/2000/svg"
 width="1531.000000pt" height="427.000000pt" viewBox="0 0 1531.000000 427.000000"
 preserveAspectRatio="xMidYMid meet">

<g transform="translate(0.000000,427.000000) scale(0.100000,-0.100000)"
fill="#000000" stroke="none">
<path d="M1335 4250 c-477 -50 -888 -211 -1131 -442 -135 -128 -195 -251 -195
-399 0 -69 4 -90 27 -138 54 -110 193 -211 291 -211 36 0 46 5 72 37 46 56 42
91 -25 219 l-56 107 4 91 c6 145 65 250 192 343 204 150 492 210 964 201 214
-5 247 -8 334 -31 309 -82 506 -270 578 -553 34 -133 43 -238 37 -444 -12
-419 -99 -734 -260 -945 -121 -159 -263 -235 -439 -235 -74 0 -81 2 -183 55
-58 30 -112 55 -120 55 -13 0 -15 111 -17 900 -3 1029 6 936 -96 934 -31 -1
-92 -11 -136 -23 -43 -11 -107 -24 -141 -27 l-63 -7 19 -31 c35 -59 39 -153
39 -969 0 -771 1 -799 20 -836 26 -51 95 -94 202 -125 48 -14 157 -57 243 -96
174 -78 235 -92 350 -79 171 19 329 112 498 289 255 267 402 626 438 1065 30
376 -48 699 -222 913 -143 177 -406 317 -689 367 -110 19 -416 28 -535 15z"/>
<path d="M3276 3849 c-53 -13 -166 -68 -166 -81 0 -18 86 -132 129 -171 51
-46 104 -73 167 -84 91 -16 226 17 239 58 8 25 -87 181 -133 219 -60 49 -166
76 -236 59z"/>
<path d="M4315 3429 c-180 -22 -318 -221 -390 -560 -29 -135 -45 -292 -51
-504 -9 -287 12 -424 87 -581 61 -130 147 -194 261 -194 18 0 54 -6 79 -14
151 -46 289 77 399 358 l43 108 18 -70 c45 -180 153 -283 297 -283 82 -1 137
25 210 100 l60 61 7 -32 c12 -56 35 -89 72 -104 47 -20 210 -21 249 -3 32 15
27 0 84 304 29 154 81 328 130 430 71 149 69 151 70 -110 0 -431 47 -555 217
-574 165 -18 283 45 377 202 l35 59 6 -39 c10 -60 45 -174 66 -216 30 -57 87
-116 140 -142 50 -26 203 -58 281 -59 37 -1 54 5 85 30 57 46 108 118 164 229
l50 100 -4 -179 -5 -180 -28 -20 c-16 -12 -67 -55 -114 -97 -141 -126 -254
-277 -341 -455 -97 -200 -142 -384 -143 -584 -1 -107 2 -132 20 -170 29 -62
69 -107 129 -145 96 -61 201 -84 397 -86 112 -1 132 1 172 21 103 49 173 199
207 440 7 52 13 268 15 560 2 261 6 480 9 487 3 10 20 12 67 8 53 -5 68 -3 96
14 77 49 0 129 -124 131 -40 0 -42 1 -48 38 -15 92 2 642 24 764 7 35 20 77
31 94 33 54 26 70 -38 93 -100 36 -91 3 -82 311 3 92 1 111 -19 155 -46 101
-113 148 -275 195 -59 17 -140 46 -179 65 -81 39 -111 42 -188 19 -43 -13 -68
-30 -121 -83 -142 -142 -229 -419 -254 -806 -3 -55 -12 -113 -20 -130 -7 -16
-19 -66 -28 -110 -33 -180 -130 -335 -208 -335 -91 0 -114 96 -104 430 9 306
7 394 -11 457 -27 97 -105 154 -186 139 -34 -6 -84 -50 -126 -111 -40 -60
-120 -232 -178 -385 l-59 -155 -3 419 c-2 374 -4 422 -19 438 -35 39 -219 76
-245 50 -9 -9 -19 -172 -34 -525 -30 -689 -24 -631 -69 -716 -46 -86 -83 -121
-131 -121 -49 0 -71 14 -95 61 -34 67 -49 176 -49 352 0 156 7 212 41 330 17
59 10 73 -57 109 -59 32 -63 45 -63 229 -1 97 -6 142 -21 191 -33 109 -96 176
-180 193 -19 4 -79 27 -134 52 -106 49 -180 63 -271 52z m2919 -283 c84 -35
130 -147 130 -316 0 -89 -3 -111 -23 -148 -12 -24 -24 -64 -26 -90 -3 -26 -10
-102 -15 -169 -32 -365 -173 -634 -335 -637 -55 -1 -87 27 -114 98 -58 156
-63 557 -10 803 40 185 92 305 167 386 74 79 151 104 226 73z m-2672 -26 c48
-14 100 -74 122 -143 10 -28 20 -95 23 -148 5 -90 4 -98 -14 -108 -32 -17 -41
-55 -58 -241 -30 -325 -56 -457 -115 -576 -58 -118 -119 -164 -218 -164 -68 0
-114 87 -143 265 -15 100 -15 410 0 530 25 197 85 380 161 489 59 87 148 122
242 96z m2788 -2034 c0 -383 -9 -506 -46 -634 -56 -193 -141 -277 -262 -259
-48 8 -104 69 -123 134 -20 68 -17 249 4 351 56 262 194 541 342 689 35 35 68
63 74 63 8 0 11 -102 11 -344z"/>
<path d="M12124 3429 c-249 -31 -413 -393 -439 -969 -4 -74 -13 -171 -22 -215
-34 -177 -119 -389 -182 -452 -126 -127 -211 65 -197 447 8 232 35 395 97 589
25 80 28 99 18 122 -23 56 -168 98 -340 99 -47 0 -100 5 -118 11 l-31 11 0
102 c0 125 -10 146 -74 146 -59 0 -128 -26 -161 -60 l-29 -30 12 -187 c21
-324 9 -637 -32 -843 -24 -123 -24 -146 3 -153 90 -23 140 124 205 613 20 146
29 187 43 198 22 17 115 11 137 -7 19 -16 21 -85 6 -211 -14 -114 -14 -393 0
-505 32 -262 129 -462 250 -514 35 -15 72 -22 115 -22 122 0 202 67 287 238
l42 84 27 -76 c61 -166 161 -255 288 -255 20 0 57 -6 82 -14 146 -44 296 88
394 349 51 134 46 128 60 58 27 -127 103 -233 197 -273 66 -28 154 -29 211 -1
57 27 141 113 187 190 l37 61 6 -97 c10 -146 24 -192 67 -214 80 -41 308 -55
329 -20 5 7 11 61 15 119 24 369 135 866 183 818 5 -4 11 -159 14 -344 5 -283
9 -344 23 -382 34 -91 98 -129 214 -130 45 0 84 6 101 15 26 13 30 22 40 96
30 199 151 579 251 783 l40 81 -8 -135 c-4 -74 -6 -205 -5 -290 4 -419 135
-639 382 -641 82 -1 125 16 186 72 121 111 238 374 261 586 10 91 2 113 -41
113 -43 0 -56 -23 -80 -140 -45 -221 -111 -357 -195 -400 -86 -44 -142 -12
-176 102 -17 56 -19 96 -19 343 1 252 3 290 23 379 12 55 34 119 48 143 19 34
24 51 19 75 -10 44 -92 120 -168 157 -64 31 -85 35 -175 33 -48 -2 -54 -5 -72
-34 -29 -48 -145 -346 -245 -633 -48 -137 -94 -257 -101 -265 -12 -12 -14 39
-14 346 0 403 3 386 -73 427 -34 18 -58 22 -129 22 -82 0 -88 -2 -117 -29 -65
-62 -137 -241 -211 -525 l-49 -186 0 486 -1 485 -52 17 c-64 19 -161 37 -202
37 -57 0 -58 -4 -57 -166 2 -271 -18 -762 -33 -812 -8 -26 -26 -87 -41 -137
-50 -168 -112 -255 -181 -255 -46 0 -68 12 -93 53 -66 108 -77 478 -19 658 28
87 19 112 -51 141 -59 25 -61 32 -61 218 0 241 -61 359 -204 396 -29 8 -93 33
-142 55 -96 45 -170 59 -260 48z m266 -321 c79 -40 117 -125 127 -284 6 -87 5
-92 -16 -104 -12 -6 -26 -22 -31 -36 -6 -14 -19 -120 -30 -237 -49 -499 -127
-683 -298 -704 -66 -7 -96 11 -128 80 -41 91 -58 220 -58 442 0 297 37 503
122 675 79 162 198 225 312 168z"/>
<path d="M8421 3408 c-81 -12 -147 -53 -199 -123 -133 -180 -252 -530 -282
-830 -20 -198 8 -391 76 -527 86 -172 291 -306 512 -336 132 -18 217 14 319
121 112 118 191 298 208 477 l7 75 54 48 c30 27 75 79 101 115 26 37 50 72 55
77 6 6 7 -43 3 -120 -8 -147 7 -376 31 -475 34 -139 107 -245 198 -289 35 -17
99 -32 253 -58 83 -14 170 70 269 257 l55 105 -5 -175 -6 -175 -53 -45 c-177
-152 -282 -272 -373 -426 -123 -209 -192 -432 -201 -649 -7 -166 6 -220 73
-294 99 -110 224 -150 476 -152 107 0 132 3 165 20 113 57 189 229 212 482 6
63 11 311 11 551 0 240 3 444 6 453 5 13 16 15 63 9 100 -11 164 35 127 90
-18 29 -94 56 -154 56 l-45 0 6 348 c6 381 15 471 55 550 31 62 27 70 -56 97
-80 26 -86 41 -72 175 34 305 -31 414 -289 480 -45 12 -121 40 -169 62 -77 35
-93 39 -137 34 -27 -3 -75 -18 -105 -33 -103 -53 -202 -210 -256 -408 -19 -69
-35 -106 -51 -120 -13 -11 -39 -60 -59 -110 -53 -133 -154 -278 -182 -261 -5
3 -12 61 -15 128 -6 142 -39 342 -64 399 -25 55 -164 210 -251 280 -126 102
-208 132 -311 117z m250 -261 c96 -64 165 -344 157 -642 l-3 -110 -70 -35
c-67 -34 -73 -35 -185 -35 -96 0 -122 3 -161 21 -92 43 -129 126 -129 289 0
121 24 228 75 330 40 81 110 165 157 188 49 24 118 22 159 -6z m1303 -11 c67
-43 106 -156 106 -303 0 -77 -4 -104 -25 -152 -19 -46 -26 -88 -34 -197 -12
-166 -31 -268 -71 -390 -74 -220 -198 -342 -310 -303 -71 25 -109 160 -117
424 -15 460 95 822 277 918 44 23 64 28 102 24 26 -2 58 -11 72 -21z m-1681
-980 c61 -36 118 -47 226 -48 98 0 209 20 261 47 30 15 30 15 30 -13 0 -93
-71 -221 -151 -272 -98 -63 -250 -64 -329 -2 -58 46 -84 111 -88 220 -2 50 -1
92 3 92 3 0 25 -11 48 -24z m1777 -983 c-1 -492 -20 -679 -85 -820 -51 -113
-112 -163 -197 -163 -63 0 -104 29 -136 98 -22 48 -27 74 -30 168 -8 233 86
529 242 763 60 91 172 211 195 211 8 0 11 -80 11 -257z"/>
<path d="M3265 3175 l-25 -24 0 -539 0 -540 -27 -17 c-53 -34 -205 -190 -268
-275 -196 -264 -314 -574 -316 -830 -2 -197 61 -301 215 -359 53 -20 284 -53
368 -52 142 0 256 139 309 377 21 94 22 127 26 612 l4 512 62 0 c84 0 132 24
132 65 0 26 -7 33 -49 54 -33 17 -64 24 -97 23 -44 -1 -50 2 -55 24 -4 14 -4
184 -1 377 5 363 13 434 52 490 26 37 19 57 -29 77 -54 25 -173 50 -232 50
-34 0 -51 -6 -69 -25z m-25 -1522 c0 -458 -24 -656 -95 -800 -42 -84 -83 -120
-146 -129 -70 -9 -126 26 -163 99 -28 54 -30 66 -30 170 1 233 97 523 252 757
53 79 157 200 173 200 5 0 9 -124 9 -297z"/>
</g>
</svg>
